<mxfile host="app.diagrams.net" modified="2023-05-03T02:50:51.133Z" agent="Mozilla/5.0 (Windows NT 10.0; Win64; x64) AppleWebKit/537.36 (KHTML, like Gecko) Chrome/112.0.0.0 Safari/537.36 Edg/112.0.1722.64" etag="z9ckJoKrk4nqzqv7Dw3I" version="21.2.1" type="github">
  <diagram name="第 1 页" id="JSrbW4UyUgXdCEX1WXYo">
    <mxGraphModel dx="1252" dy="724" grid="1" gridSize="10" guides="1" tooltips="1" connect="1" arrows="1" fold="1" page="1" pageScale="1" pageWidth="827" pageHeight="1169" math="0" shadow="0">
      <root>
        <mxCell id="0" />
        <mxCell id="1" parent="0" />
        <mxCell id="l0r-FHUQmkjrt5_u1VNZ-15" style="edgeStyle=orthogonalEdgeStyle;curved=1;rounded=0;orthogonalLoop=1;jettySize=auto;html=1;exitX=1;exitY=0.5;exitDx=0;exitDy=0;entryX=0;entryY=0.5;entryDx=0;entryDy=0;" edge="1" parent="1" source="l0r-FHUQmkjrt5_u1VNZ-1" target="l0r-FHUQmkjrt5_u1VNZ-5">
          <mxGeometry relative="1" as="geometry" />
        </mxCell>
        <mxCell id="l0r-FHUQmkjrt5_u1VNZ-21" style="edgeStyle=orthogonalEdgeStyle;curved=1;rounded=0;orthogonalLoop=1;jettySize=auto;html=1;exitX=1;exitY=0.5;exitDx=0;exitDy=0;entryX=0;entryY=0.5;entryDx=0;entryDy=0;" edge="1" parent="1" source="l0r-FHUQmkjrt5_u1VNZ-1" target="l0r-FHUQmkjrt5_u1VNZ-6">
          <mxGeometry relative="1" as="geometry" />
        </mxCell>
        <mxCell id="l0r-FHUQmkjrt5_u1VNZ-23" style="edgeStyle=orthogonalEdgeStyle;curved=1;rounded=0;orthogonalLoop=1;jettySize=auto;html=1;exitX=1;exitY=0.5;exitDx=0;exitDy=0;entryX=0;entryY=0.5;entryDx=0;entryDy=0;" edge="1" parent="1" source="l0r-FHUQmkjrt5_u1VNZ-1" target="l0r-FHUQmkjrt5_u1VNZ-8">
          <mxGeometry relative="1" as="geometry" />
        </mxCell>
        <mxCell id="l0r-FHUQmkjrt5_u1VNZ-1" value="已有平台定制开发" style="rounded=0;whiteSpace=wrap;html=1;fillColor=#6d8764;strokeColor=none;fontColor=#ffffff;" vertex="1" parent="1">
          <mxGeometry x="160" y="240" width="120" height="60" as="geometry" />
        </mxCell>
        <mxCell id="l0r-FHUQmkjrt5_u1VNZ-25" style="edgeStyle=orthogonalEdgeStyle;curved=1;rounded=0;orthogonalLoop=1;jettySize=auto;html=1;exitX=1;exitY=0.5;exitDx=0;exitDy=0;entryX=0;entryY=0.5;entryDx=0;entryDy=0;" edge="1" parent="1" source="l0r-FHUQmkjrt5_u1VNZ-2" target="l0r-FHUQmkjrt5_u1VNZ-9">
          <mxGeometry relative="1" as="geometry" />
        </mxCell>
        <mxCell id="l0r-FHUQmkjrt5_u1VNZ-26" style="edgeStyle=orthogonalEdgeStyle;curved=1;rounded=0;orthogonalLoop=1;jettySize=auto;html=1;exitX=1;exitY=0.5;exitDx=0;exitDy=0;entryX=0;entryY=0.5;entryDx=0;entryDy=0;" edge="1" parent="1" source="l0r-FHUQmkjrt5_u1VNZ-2" target="l0r-FHUQmkjrt5_u1VNZ-5">
          <mxGeometry relative="1" as="geometry" />
        </mxCell>
        <mxCell id="l0r-FHUQmkjrt5_u1VNZ-29" style="edgeStyle=orthogonalEdgeStyle;curved=1;rounded=0;orthogonalLoop=1;jettySize=auto;html=1;exitX=1;exitY=0.5;exitDx=0;exitDy=0;entryX=0;entryY=0.5;entryDx=0;entryDy=0;" edge="1" parent="1" source="l0r-FHUQmkjrt5_u1VNZ-2" target="l0r-FHUQmkjrt5_u1VNZ-6">
          <mxGeometry relative="1" as="geometry" />
        </mxCell>
        <mxCell id="l0r-FHUQmkjrt5_u1VNZ-30" style="edgeStyle=orthogonalEdgeStyle;curved=1;rounded=0;orthogonalLoop=1;jettySize=auto;html=1;exitX=1;exitY=0.5;exitDx=0;exitDy=0;entryX=0;entryY=0.5;entryDx=0;entryDy=0;" edge="1" parent="1" source="l0r-FHUQmkjrt5_u1VNZ-2" target="l0r-FHUQmkjrt5_u1VNZ-8">
          <mxGeometry relative="1" as="geometry" />
        </mxCell>
        <mxCell id="l0r-FHUQmkjrt5_u1VNZ-2" value="技术平台规划与开发" style="rounded=0;whiteSpace=wrap;html=1;fillColor=#6d8764;strokeColor=none;fontColor=#ffffff;" vertex="1" parent="1">
          <mxGeometry x="160" y="140" width="120" height="60" as="geometry" />
        </mxCell>
        <mxCell id="l0r-FHUQmkjrt5_u1VNZ-17" style="edgeStyle=orthogonalEdgeStyle;curved=1;rounded=0;orthogonalLoop=1;jettySize=auto;html=1;exitX=1;exitY=0.5;exitDx=0;exitDy=0;entryX=0;entryY=0.5;entryDx=0;entryDy=0;" edge="1" parent="1" source="l0r-FHUQmkjrt5_u1VNZ-3" target="l0r-FHUQmkjrt5_u1VNZ-5">
          <mxGeometry relative="1" as="geometry" />
        </mxCell>
        <mxCell id="l0r-FHUQmkjrt5_u1VNZ-18" style="edgeStyle=orthogonalEdgeStyle;curved=1;rounded=0;orthogonalLoop=1;jettySize=auto;html=1;exitX=1;exitY=0.5;exitDx=0;exitDy=0;entryX=0;entryY=0.5;entryDx=0;entryDy=0;" edge="1" parent="1" source="l0r-FHUQmkjrt5_u1VNZ-3" target="l0r-FHUQmkjrt5_u1VNZ-6">
          <mxGeometry relative="1" as="geometry" />
        </mxCell>
        <mxCell id="l0r-FHUQmkjrt5_u1VNZ-20" style="edgeStyle=orthogonalEdgeStyle;curved=1;rounded=0;orthogonalLoop=1;jettySize=auto;html=1;exitX=1;exitY=0.5;exitDx=0;exitDy=0;entryX=0;entryY=0.5;entryDx=0;entryDy=0;" edge="1" parent="1" source="l0r-FHUQmkjrt5_u1VNZ-3" target="l0r-FHUQmkjrt5_u1VNZ-8">
          <mxGeometry relative="1" as="geometry" />
        </mxCell>
        <mxCell id="l0r-FHUQmkjrt5_u1VNZ-24" style="edgeStyle=orthogonalEdgeStyle;curved=1;rounded=0;orthogonalLoop=1;jettySize=auto;html=1;exitX=1;exitY=0.5;exitDx=0;exitDy=0;entryX=0;entryY=0.5;entryDx=0;entryDy=0;" edge="1" parent="1" source="l0r-FHUQmkjrt5_u1VNZ-3" target="l0r-FHUQmkjrt5_u1VNZ-9">
          <mxGeometry relative="1" as="geometry" />
        </mxCell>
        <mxCell id="l0r-FHUQmkjrt5_u1VNZ-3" value="新产品开发" style="rounded=0;whiteSpace=wrap;html=1;fillColor=#6d8764;strokeColor=none;fontColor=#ffffff;" vertex="1" parent="1">
          <mxGeometry x="160" y="340" width="120" height="60" as="geometry" />
        </mxCell>
        <mxCell id="l0r-FHUQmkjrt5_u1VNZ-5" value="系统方案能力" style="rounded=0;whiteSpace=wrap;html=1;fillColor=#e51400;strokeColor=#B20000;fontColor=#ffffff;" vertex="1" parent="1">
          <mxGeometry x="570" y="90" width="120" height="60" as="geometry" />
        </mxCell>
        <mxCell id="l0r-FHUQmkjrt5_u1VNZ-6" value="软件/算法/光学开发能力" style="rounded=0;whiteSpace=wrap;html=1;fillColor=#f0a30a;strokeColor=#BD7000;fontColor=#000000;" vertex="1" parent="1">
          <mxGeometry x="570" y="290" width="120" height="60" as="geometry" />
        </mxCell>
        <mxCell id="l0r-FHUQmkjrt5_u1VNZ-8" value="项目管理能力" style="rounded=0;whiteSpace=wrap;html=1;fillColor=#fa6800;strokeColor=#C73500;fontColor=#000000;" vertex="1" parent="1">
          <mxGeometry x="570" y="190" width="120" height="60" as="geometry" />
        </mxCell>
        <mxCell id="l0r-FHUQmkjrt5_u1VNZ-9" value="产品规划能力" style="rounded=0;whiteSpace=wrap;html=1;fillColor=#e3c800;strokeColor=#B09500;fontColor=#000000;" vertex="1" parent="1">
          <mxGeometry x="570" y="390" width="120" height="60" as="geometry" />
        </mxCell>
      </root>
    </mxGraphModel>
  </diagram>
</mxfile>
